# xmcd
#
# Track frame offsets: 
#        150
#        10818
#        23901
#        35037
#        45550
#        57366
#        66537
#        78590
#        91281
#        101035
#
# Disc length: 1522 seconds
#
# Revision: 0
# Processed by: cddbd v1.5.2PL0 Copyright (c) Steve Scherf et al.
# Submitted via: ExactAudioCopy v0.99pb5
#
DISCID=8305f00a
DTITLE=Eddy Arnold - Eddy Arnold's World Of Hits (2 of 2)
DYEAR=1900
DGENRE=Country
TTITLE0=Turn The World Around
TTITLE1=Cattle Call
TTITLE2=Don't Rob Another Man's Castle
TTITLE3=Any Time
TTITLE4=If The Whole World Stopped Lovin;
TTITLE5=What's He Doing In My World?
TTITLE6=Boquet Of Roses
TTITLE7=My Special Angel
TTITLE8=I Almost Lost My Mind
TTITLE9=May The Good Lord Bless and Keep You
EXTD=
EXTT0=
EXTT1=
EXTT2=
EXTT3=
EXTT4=
EXTT5=
EXTT6=
EXTT7=
EXTT8=
EXTT9=
PLAYORDER=
